# xmcd
#
# Track frame offsets:
#	150
#	17251
#	28103
#	39285
#	47308
#	61919
#	77587
#	91355
#	103635
#	116878
#	125220
#	135495
#	145583
#	157679
#	166208
#	178402
#	189714
#	203065
#	213655
#
# Disc length: 3004 seconds
#
# Revision: 1
# Processed by: cddbd v1.5.2PL0 Copyright (c) Steve Scherf et al.
# Submitted via: audiograbber 1.83.01
#
DISCID=fb0bba13
DTITLE=Chor der Kärntner Jägerschaft - Wonn i geh auf die Pirsch
DYEAR=2009
DGENRE=Folklore
TTITLE0=Jägerchor
TTITLE1=Der Jäger uns sein Liebchen
TTITLE2=Mägdlein hab´acht!
TTITLE3=Jägers Morgenlied
TTITLE4=Morgenruf
TTITLE5=Alpengruß
TTITLE6=Der Jäger Abschied
TTITLE7=Waldkönig
TTITLE8=La Montanara
TTITLE9=Wonn i geh auf die Pirsch
TTITLE10=Wonns grean wat
TTITLE11=Mogst heint nit mit mir
TTITLE12=In Gedonkn bin i bei dir
TTITLE13=Wer siacht nit gern sei Hamatle
TTITLE14=Hot da Herbstwind
TTITLE15=Wonn die Bläter folln
TTITLE16=Lippitzboch
TTITLE17=Turracherlied
TTITLE18=Vom Mittogskogl zur Turracher Höh
EXTD=
EXTT0=
EXTT1=
EXTT2=
EXTT3=
EXTT4=
EXTT5=
EXTT6=
EXTT7=
EXTT8=
EXTT9=
EXTT10=
EXTT11=
EXTT12=
EXTT13=
EXTT14=
EXTT15=
EXTT16=
EXTT17=
EXTT18=
PLAYORDER=
